<?xml version="1.0" encoding="utf-8"?>
<!-- Generator: Adobe Illustrator 18.1.1, SVG Export Plug-In . SVG Version: 6.00 Build 0)  -->
<svg version="1.1" id="Layer_1" xmlns="http://www.w3.org/2000/svg" xmlns:xlink="http://www.w3.org/1999/xlink" x="0px" y="0px"
	 viewBox="0 0 150 150" enable-background="new 0 0 150 150" xml:space="preserve">
<path fill="#CF0A2C" d="M69.3,69.9L55.2,52.2c-0.5-0.7-1.3-1-2.2-1H17.9c-0.9,0-1.7,0.4-2.2,1l-14,17.8c-0.9,1.1-0.8,2.6,0.1,3.7
	l26.9,29.9l0,0c0.5,0.6,1.1,1,2,1c1.4,0,2.5-1.1,2.5-2.5V69.6c0-1.3-1.1-2.5-2.5-2.5H11l8.2-10.4h32.5l8.3,10.4H40.3
	c-1.3,0-2.5,1.1-2.5,2.5V102c0,1.3,1.1,2.5,2.5,2.5c0.8,0,1.5-0.4,2-0.9l0,0l26.9-30C70.2,72.6,70.2,71,69.3,69.9z M28.1,94.5
	L8,72.1h20.1V94.5z M63,72.1L42.8,94.5V72.1H63z"/>
<polygon fill="#444444" points="69.9,84.8 69.9,79.9 78.3,79.9 78.3,76.1 88.4,82.5 78.4,88.9 78.4,84.8 "/>
<g>
	<path fill="#010002" d="M116.1,52.7L92.3,70.5v28.3H140V70.5L116.1,52.7z M109.5,65.4c0.7-1.3,1.7-2.2,2.9-2.9c1.2-0.6,2.6-1,4.2-1
		c1.3,0,2.5,0.3,3.6,0.8c1,0.5,1.8,1.3,2.4,2.2c0.5,1,0.8,2,0.8,3.1c0,1.3-0.4,2.6-1.2,3.7c-1,1.4-2.4,2.1-4,2.1
		c-0.4,0-0.8-0.1-1-0.2c-0.2-0.2-0.4-0.4-0.4-0.7c-0.6,0.6-1.3,0.9-2.2,0.9c-0.9,0-1.6-0.3-2.2-0.9c-0.6-0.6-0.9-1.4-0.9-2.4
		c0-1.3,0.3-2.4,1-3.4c0.8-1.3,1.9-1.9,3.3-1.9c0.9,0,1.6,0.4,2.1,1.1l0.2-0.9h2.1l-1.2,5.7c-0.1,0.4-0.1,0.6-0.1,0.7
		c0,0.1,0,0.2,0.1,0.3c0.1,0.1,0.1,0.1,0.2,0.1c0.3,0,0.6-0.1,1-0.5c0.5-0.4,1-0.9,1.3-1.6c0.3-0.7,0.5-1.4,0.5-2.1
		c0-1.3-0.5-2.4-1.4-3.3c-0.9-0.9-2.3-1.3-3.9-1.3c-1.4,0-2.7,0.3-3.6,0.9c-1,0.6-1.7,1.4-2.3,2.5c-0.5,1.1-0.8,2.2-0.8,3.3
		c0,1.1,0.3,2.1,0.8,3c0.6,0.9,1.4,1.6,2.4,2c1,0.4,2.2,0.6,3.5,0.6c1.3,0,2.3-0.2,3.3-0.5c0.9-0.4,1.6-0.9,2.2-1.6h1.7
		c-0.5,1.1-1.3,1.9-2.4,2.5c-1.3,0.7-2.8,1-4.6,1c-1.8,0-3.3-0.3-4.5-0.9c-1.3-0.6-2.2-1.5-2.8-2.6c-0.6-1.2-0.9-2.4-0.9-3.8
		C108.5,68.1,108.8,66.7,109.5,65.4z M94,71.1l17.6,11.8L94,96.5V71.1z M95.3,97.4l20.8-16.1L137,97.4H95.3z M138.3,96.5l-17.6-13.6
		l17.6-11.8L138.3,96.5L138.3,96.5z M117,66.7c0.3,0.3,0.4,0.8,0.4,1.4c0,0.5-0.1,1.1-0.3,1.7c-0.2,0.6-0.4,1.1-0.7,1.4
		c-0.2,0.2-0.4,0.4-0.6,0.5c-0.3,0.1-0.5,0.2-0.8,0.2c-0.4,0-0.7-0.2-1-0.5c-0.3-0.3-0.4-0.8-0.4-1.5c0-0.5,0.1-1.1,0.3-1.7
		c0.2-0.7,0.5-1.1,0.9-1.5c0.4-0.4,0.8-0.5,1.3-0.5C116.4,66.2,116.7,66.4,117,66.7z"/>
</g>
</svg>
